<svg xmlns="http://www.w3.org/2000/svg" viewBox="0 0 24 24" fill="currentColor"><path d="M12 10.8c-1.087-2.114-4.046-6.053-6.798-7.995C3.566 1.266 1.864.62.3.358c-1.512-.262-1.378.89-.956 1.486.304.437.695.9 1.517 1.466C.588 3.27.046 3.537 0 4.341c-.031.784.501 1.225 1.237 1.592C.781 6.178.29 6.652.069 7.113c-.25.553-.1 1.033.388 1.299.765.42 1.688.428 2.86.149C2.257 9.496 1.098 11.41.908 12.876c-.123.939.088 1.583.567 1.75 1.305.456 2.397-.48 4.1-3.216l-.37 1.17c.493 1.137 1.538 4.65 4.765 5.765.602.213 1.212.287 1.84.23 1.177-.108 2.436-.764 2.436-2.765v-3.56l.024-.046c.35.577.674 1.1.942 1.524 1.71 2.736 2.814 3.672 4.118 3.215.48-.167.691-.81.568-1.75-.19-1.465-1.349-3.38-1.41-4.314 1.172.279 2.095.271 2.86-.15.488-.265.639-.745.389-1.298-.221-.461-.712-.935-1.168-1.18.736-.368 1.268-.808 1.237-1.592-.046-.804-.588-1.07-1.756-1.517.822-.565 1.213-1.029 1.517-1.466.422-.596.556-1.748-.956-1.486-1.564.262-3.266.908-4.902 2.447C16.046 4.748 13.087 8.686 12 10.8z"/></svg>
