<svg width="640" height="640" viewBox="0 0 640 640" fill="none" xmlns="http://www.w3.org/2000/svg">
<g clip-path="url(#clip0_3541_14)">
<path d="M319.762 63.709C332.697 63.709 345.404 67.1041 356.616 73.5518L356.617 73.5508L515.949 164.598L516.059 164.661C527.286 171.143 536.612 180.464 543.1 191.688C549.588 202.913 553.01 215.646 553.023 228.61V410.762C553.01 423.726 549.588 436.459 543.1 447.684C536.612 458.908 527.286 468.23 516.059 474.712L356.617 565.821L356.616 565.819C346.016 571.915 334.079 575.281 321.876 575.63C321.178 575.681 320.473 575.709 319.762 575.709C319.051 575.709 318.346 575.681 317.647 575.63C305.444 575.281 293.507 571.916 282.906 565.819V565.821L123.465 474.712C112.237 468.23 102.912 458.908 96.4238 447.684C89.9359 436.459 86.5133 423.726 86.5 410.762V228.61C86.5133 215.646 89.9358 202.913 96.4238 191.688C102.912 180.464 112.237 171.143 123.465 164.661L123.574 164.598L282.906 73.5508V73.5518C294.118 67.1039 306.826 63.709 319.762 63.709ZM143.313 410.704L143.322 411.266C143.417 414.072 144.202 416.816 145.61 419.252C147.107 421.841 149.257 423.993 151.844 425.493L291.355 505.214V336.125L143.313 251.044V410.704ZM348.168 336.121V505.214L487.679 425.493C490.266 423.993 492.416 421.841 493.913 419.252C495.41 416.662 496.202 413.724 496.21 410.732V251.039L348.168 336.121ZM319.762 120.522C316.757 120.522 313.805 121.313 311.203 122.815L172.311 202.183L319.758 286.921L467.207 202.181L328.43 122.878C328.393 122.857 328.356 122.836 328.319 122.815C325.717 121.313 322.766 120.522 319.762 120.522Z" fill="black"/>
</g>
<defs>
<clipPath id="clip0_3541_14">
<rect width="468" height="513" fill="white" transform="translate(86 63)"/>
</clipPath>
</defs>
</svg>
