<svg width="560" height="500" viewBox="0 0 560 500" fill="none" xmlns="http://www.w3.org/2000/svg">
<g clip-path="url(#clip0_3473_2)">
<path d="M396.472 288.207C393.264 287.817 389.958 287.427 386.75 286.939C390.056 287.329 393.264 287.817 396.472 288.207ZM280 222.32C254.625 172.904 185.597 80.7991 121.431 35.38C59.8889 -8.18722 36.4583 -0.68235 21 6.33519C3.20833 14.4249 0 41.8128 0 57.8946C0 73.9765 8.84722 190.058 14.5833 209.454C33.5417 273.489 101.208 295.127 163.528 288.109C166.736 287.622 169.944 287.232 173.25 286.745C170.042 287.232 166.833 287.719 163.528 288.109C72.2361 301.754 -8.84722 335.088 97.5139 453.704C214.472 575.146 257.736 427.68 280 352.924C302.264 427.68 327.833 569.785 460.444 453.704C560 352.924 487.764 301.657 396.472 288.109C393.264 287.719 389.958 287.329 386.75 286.842C390.056 287.232 393.264 287.719 396.472 288.109C458.792 295.029 526.361 273.392 545.417 209.454C551.153 190.058 560 74.074 560 57.8946C560 41.7153 556.792 14.3274 539 6.33519C523.639 -0.584884 500.111 -8.18722 438.667 35.38C374.403 80.7991 305.375 172.904 280 222.32Z" fill="black"/>
</g>
<defs>
<clipPath id="clip0_3473_2">
<rect width="560" height="500" fill="white"/>
</clipPath>
</defs>
</svg>
