<svg width="512" height="500" viewBox="0 0 512 500" fill="none" xmlns="http://www.w3.org/2000/svg">
<g clip-path="url(#clip0_3473_6)">
<path d="M171.252 402.273C171.252 404.339 168.877 405.992 165.884 405.992C162.477 406.302 160.103 404.649 160.103 402.273C160.103 400.207 162.477 398.554 165.471 398.554C168.568 398.244 171.252 399.897 171.252 402.273ZM139.148 397.624C138.426 399.69 140.49 402.066 143.587 402.686C146.271 403.719 149.368 402.686 149.987 400.62C150.606 398.554 148.645 396.178 145.548 395.248C142.865 394.525 139.871 395.558 139.148 397.624ZM184.774 395.868C181.781 396.591 179.716 398.554 180.026 400.93C180.335 402.996 183.019 404.339 186.116 403.616C189.11 402.893 191.174 400.93 190.865 398.864C190.555 396.901 187.768 395.558 184.774 395.868ZM252.697 0C109.523 0 0 108.781 0 252.066C0 366.632 72.0516 464.669 174.968 499.174C188.181 501.55 192.826 493.388 192.826 486.674C192.826 480.269 192.516 444.938 192.516 423.244C192.516 423.244 120.258 438.74 105.084 392.459C105.084 392.459 93.3161 362.397 76.3871 354.649C76.3871 354.649 52.7484 338.43 78.0387 338.74C78.0387 338.74 103.742 340.806 117.884 365.393C140.49 405.269 178.374 393.802 193.135 386.983C195.51 370.455 202.219 358.988 209.652 352.169C151.948 345.764 93.729 337.397 93.729 238.017C93.729 209.607 101.574 195.351 118.09 177.169C115.406 170.455 106.632 142.769 120.774 107.025C142.348 100.31 192 134.917 192 134.917C212.645 129.132 234.839 126.136 256.826 126.136C278.813 126.136 301.006 129.132 321.652 134.917C321.652 134.917 371.303 100.207 392.877 107.025C407.019 142.872 398.245 170.455 395.561 177.169C412.077 195.455 422.194 209.711 422.194 238.017C422.194 337.707 361.394 345.661 303.69 352.169C313.187 360.331 321.239 375.826 321.239 400.103C321.239 434.917 320.929 477.996 320.929 486.467C320.929 493.182 325.677 501.343 338.787 498.967C442.013 464.669 512 366.632 512 252.066C512 108.781 395.871 0 252.697 0ZM100.335 356.302C98.9935 357.335 99.3032 359.711 101.058 361.674C102.71 363.326 105.084 364.05 106.426 362.707C107.768 361.674 107.458 359.297 105.703 357.335C104.052 355.682 101.677 354.959 100.335 356.302ZM89.1871 347.934C88.4645 349.277 89.4968 350.93 91.5613 351.963C93.2129 352.996 95.2774 352.686 96 351.24C96.7226 349.897 95.6903 348.244 93.6258 347.211C91.5613 346.591 89.9097 346.901 89.1871 347.934ZM122.632 384.711C120.981 386.054 121.6 389.153 123.974 391.116C126.348 393.492 129.342 393.802 130.684 392.149C132.026 390.806 131.406 387.707 129.342 385.744C127.071 383.368 123.974 383.058 122.632 384.711ZM110.865 369.525C109.213 370.558 109.213 373.244 110.865 375.62C112.516 377.996 115.303 379.029 116.645 377.996C118.297 376.653 118.297 373.967 116.645 371.591C115.2 369.215 112.516 368.182 110.865 369.525Z" fill="black"/>
</g>
<defs>
<clipPath id="clip0_3473_6">
<rect width="512" height="500" fill="white"/>
</clipPath>
</defs>
</svg>
