<svg width="646" height="500" viewBox="0 0 646 500" fill="none" xmlns="http://www.w3.org/2000/svg">
<path d="M305.748 0C418.829 0 448.044 1.38538 489.978 5.54155C588.326 15.3652 645.622 76.0705 645.622 163.224V174.433C645.622 255.416 586.311 321.662 506.096 328.589C499.8 349.496 489.978 370.403 476.755 391.436C446.03 438.917 384.704 498.866 271.622 498.866H249.333C157.281 498.866 86.0073 459.068 43.4443 386.524C5.79246 323.048 0.881348 252.519 0.881348 158.312C0.881348 65.4912 56.7925 15.2393 122.274 6.92695C171.763 0.629723 233.215 0 305.748 0ZM305.748 52.393C229.689 52.393 175.289 53.0227 134.111 59.3199C76.1851 67.7582 53.1406 100.504 53.1406 159.068L53.3925 191.436C54.9036 263.602 62.3332 313.728 88.0221 360.831C121.518 422.922 182.215 446.725 251.348 446.725H273.007C363.674 446.725 407.748 402.771 432.052 364.358C443.889 344.836 454.341 323.174 460.007 295.97L464.163 278.589H489.222C545.007 278.589 593.237 233.249 593.237 175.315V164.861C593.237 100 552.689 65.7431 482.296 57.4307C442.504 53.9043 418.829 52.5189 305.748 52.5189V52.393ZM327.407 118.64C375.511 118.64 409.007 158.438 409.007 203.023C409.007 244.207 385.963 279.849 355.992 307.683C337.104 326.574 306.504 346.096 285.6 358.69C280.059 362.217 273.007 364.232 264.57 364.232C257.644 364.232 251.348 362.091 245.052 358.69C224.148 346.096 193.422 326.574 173.904 307.683C146.452 281.486 124.541 248.615 121.896 210.705L121.644 203.023C121.644 158.312 153.755 118.64 202.615 118.64C231.2 118.64 251.474 133.249 264.696 153.526C279.304 133.249 298.948 118.64 327.533 118.64H327.407ZM481.667 113.728C517.304 113.728 536.822 134.635 536.822 168.136C536.822 201.637 517.304 221.914 481.667 221.914C470.459 221.914 464.289 215.617 464.289 207.179V128.338C464.289 119.899 470.585 113.728 481.667 113.728Z" fill="black"/>
</svg>
