<svg width="200" height="200" viewBox="0 0 200 200" fill="none" xmlns="http://www.w3.org/2000/svg">
<g clip-path="url(#clip0_3499_62)">
<rect x="16" y="58" width="168" height="86" fill="white"/>
<path d="M180 0C191.046 2.57703e-06 200 8.95431 200 20V180C200 191.046 191.046 200 180 200H20C8.95431 200 1.61075e-07 191.046 0 180V20C2.5772e-06 8.95431 8.95431 1.61064e-07 20 0H180ZM59.041 75.3271C56.832 75.3273 55.041 77.1181 55.041 79.3271V91.7754H42.5938C40.3848 91.7756 38.5939 93.5665 38.5938 95.7754V104.225C38.594 106.433 40.3849 108.224 42.5938 108.225H55.041V120.673C55.041 122.882 56.832 124.673 59.041 124.673H67.4893C69.6984 124.673 71.4892 122.882 71.4893 120.673V108.225H83.9395C86.1484 108.225 87.9392 106.434 87.9395 104.225V95.7754C87.9393 93.5664 86.1485 91.7754 83.9395 91.7754H71.4893V79.3271C71.4893 77.118 69.6984 75.3271 67.4893 75.3271H59.041ZM136.733 75.3271C123.107 75.3272 112.061 86.3736 112.061 100C112.061 113.626 123.107 124.673 136.733 124.673C150.36 124.673 161.406 113.626 161.406 100C161.406 86.3736 150.36 75.3272 136.733 75.3271ZM136.733 88.1201C143.294 88.1201 148.613 93.4391 148.613 100C148.613 106.561 143.294 111.88 136.733 111.88C130.173 111.88 124.854 106.561 124.854 100C124.854 93.4392 130.173 88.1202 136.733 88.1201Z" fill="#FE1252"/>
</g>
<defs>
<clipPath id="clip0_3499_62">
<rect width="200" height="200" fill="white"/>
</clipPath>
</defs>
</svg>
