<svg width="72" height="72" viewBox="0 0 72 72" fill="none" xmlns="http://www.w3.org/2000/svg">
<g clip-path="url(#clip0_3459_244)">
<path d="M32.3592 45.7565C32.8367 45.2785 33.4037 44.8992 34.0278 44.6405C34.6519 44.3817 35.321 44.2485 35.9966 44.2485C36.6723 44.2485 37.3413 44.3817 37.9654 44.6405C38.5896 44.8992 39.1566 45.2785 39.6341 45.7565L46.2785 52.401C47.8762 53.9982 48.774 56.1646 48.7745 58.4236V67.6748C48.7745 68.8045 48.3257 69.8878 47.527 70.6866C46.7282 71.4854 45.6448 71.9341 44.5152 71.9341H27.478C26.3484 71.9341 25.265 71.4854 24.4663 70.6866C23.6675 69.8878 23.2188 68.8045 23.2188 67.6748V58.4236C23.2192 56.1646 24.117 53.9982 25.7147 52.401L32.3592 45.7565Z" fill="#10D275"/>
<path d="M58.4329 48.7779C56.1738 48.7774 54.0075 47.8796 52.4103 46.282L45.7658 39.6375C45.2877 39.16 44.9085 38.593 44.6497 37.9689C44.391 37.3447 44.2578 36.6757 44.2578 36C44.2578 35.3244 44.391 34.6554 44.6497 34.0312C44.9085 33.4071 45.2877 32.8401 45.7658 32.3626L52.4103 25.7181C54.0075 24.1205 56.1738 23.2227 58.4329 23.2222H67.6841C68.8137 23.2222 69.8971 23.6709 70.6959 24.4697C71.4947 25.2685 71.9434 26.3518 71.9434 27.4815V44.5186C71.9434 45.6483 71.4947 46.7316 70.6959 47.5304C69.8971 48.3292 68.8137 48.7779 67.6841 48.7779H58.4329Z" fill="#FFD100"/>
<path d="M19.6034 46.282C18.0062 47.8796 15.8399 48.7774 13.5808 48.7779H4.3296C3.19997 48.7779 2.1166 48.3292 1.31783 47.5304C0.519058 46.7316 0.0703125 45.6483 0.0703125 44.5186V27.4815C0.0703125 26.3518 0.519058 25.2685 1.31783 24.4697C2.1166 23.6709 3.19997 23.2222 4.3296 23.2222H13.5808C15.8399 23.2227 18.0062 24.1205 19.6034 25.7181L26.2479 32.3626C26.726 32.8401 27.1052 33.4071 27.364 34.0312C27.6227 34.6554 27.7559 35.3244 27.7559 36C27.7559 36.6757 27.6227 37.3447 27.364 37.9689C27.1052 38.593 26.726 39.16 26.2479 39.6375L19.6034 46.282Z" fill="#29ADFF"/>
<path d="M23.2188 4.32521C23.2188 3.19557 23.6675 2.11221 24.4663 1.31344C25.265 0.514663 26.3484 0.065918 27.478 0.065918H44.5152C45.6448 0.065918 46.7282 0.514663 47.527 1.31344C48.3257 2.11221 48.7745 3.19557 48.7745 4.32521V13.5764C48.774 15.8355 47.8762 18.0019 46.2785 19.599L39.6341 26.2435C39.1566 26.7216 38.5896 27.1008 37.9654 27.3596C37.3413 27.6183 36.6723 27.7515 35.9966 27.7515C35.321 27.7515 34.6519 27.6183 34.0278 27.3596C33.4037 27.1008 32.8367 26.7216 32.3592 26.2435L25.7147 19.599C24.117 18.0019 23.2192 15.8355 23.2188 13.5764V4.32521Z" fill="#FF3668"/>
</g>
<defs>
<clipPath id="clip0_3459_244">
<rect width="72" height="72" fill="white"/>
</clipPath>
</defs>
</svg>
