<svg width="200" height="116" viewBox="0 0 200 116" fill="none" xmlns="http://www.w3.org/2000/svg">
<g clip-path="url(#clip0_3489_396)">
<rect x="27" y="25" width="146" height="68" fill="white"/>
<path d="M141.999 0C174.032 0 200 25.9673 200 58C200 90.0326 174.032 116 141.999 116H58C25.9675 116 6.30017e-05 90.0325 0 58C0 25.9674 25.9675 0.000183299 58 0H141.999ZM59.041 33.3271C56.832 33.3273 55.041 35.1181 55.041 37.3271V49.7754H42.5938C40.3848 49.7756 38.5939 51.5665 38.5938 53.7754V62.2246C38.594 64.4334 40.3849 66.2244 42.5938 66.2246H55.041V78.6729C55.041 80.8819 56.832 82.6727 59.041 82.6729H67.4893C69.6984 82.6729 71.4892 80.882 71.4893 78.6729V66.2246H83.9395C86.1484 66.2246 87.9392 64.4336 87.9395 62.2246V53.7754C87.9393 51.5664 86.1485 49.7754 83.9395 49.7754H71.4893V37.3271C71.4893 35.118 69.6984 33.3271 67.4893 33.3271H59.041ZM136.733 33.3271C123.107 33.3272 112.061 44.3736 112.061 58C112.061 71.6264 123.107 82.6728 136.733 82.6729C150.36 82.6728 161.406 71.6264 161.406 58C161.406 44.3736 150.36 33.3272 136.733 33.3271ZM136.733 46.1201C143.294 46.1201 148.613 51.4391 148.613 58C148.613 64.5608 143.294 69.8799 136.733 69.8799C130.173 69.8798 124.854 64.5608 124.854 58C124.854 51.4392 130.173 46.1202 136.733 46.1201Z" fill="#FE1252"/>
</g>
<defs>
<clipPath id="clip0_3489_396">
<rect width="200" height="116" fill="white"/>
</clipPath>
</defs>
</svg>
